poster: 
http://isansar.com/wp-content/uploads/2012/04/Housefull-2-Poster.jpg


General
Complete name : Housefull 2 (2012) 1CD DVD Rip Xvid MP3 Subs BWTV.avi
Format : AVI
Format/Info : Audio Video Interleave
File size : 713 MiB
Duration : 2h 39mn
Overall bit rate : 623 Kbps
Writing library : VirtualDub build 32661/release

Video
ID : 0
Format : MPEG-4 Visual
Format profile : Advanced Simple@L5
Format settings, BVOP : 2
Format settings, QPel : Yes
Format settings, GMC : No warppoints
Format settings, Matrix : Default (H.263)
Codec ID : XVID
Codec ID/Hint : XviD
Duration : 2h 39mn
Bit rate : 518 Kbps
Width : 608 pixels
Height : 256 pixels
Display aspect ratio : 2.40:1
Frame rate : 23.976 fps
Color space : YUV
Chroma subsampling : 4:2:0
Bit depth : 8 bits
Scan type : Progressive
Compression mode : Lossy
Bits/(Pixel*Frame) : 0.139
Stream size : 592 MiB (83%)
Writing library : XviD 1.2.1 (UTC 2008-12-04)

Audio
ID : 1
Format : MPEG Audio
Format version : Version 1
Format profile : Layer 3
Mode : Joint stereo
Codec ID : 55
Codec ID/Hint : MP3
Duration : 2h 39mn
Bit rate mode : Constant
Bit rate : 96.0 Kbps
Channel(s) : 2 channels
Sampling rate : 32.0 KHz
Compression mode : Lossy
Stream size : 110 MiB (15%)
Alignment : Split accross interleaves
Interleave, duration : 42 ms (1.00 video frame)
Interleave, preload duration : 500 ms
Writing library : LAME3.99r
Encoding settings : -m j -V 4 -q 2 -lowpass 15.1 -b 96

SCREENS: 
http://picturestack.com/41/586/8yq1mHL.png 
http://picturestack.com/41/587/cHg2izg.png 
http://picturestack.com/41/587/tYD4sPP.png 
http://picturestack.com/41/587/1s07Cyv.png 
http://picturestack.com/41/587/QUF8LFN.png 
http://picturestack.com/41/587/3aT3zfU.png 
http://picturestack.com/41/587/wl06Zok.png
